<svg id="Grupo_5124" data-name="Grupo 5124" xmlns="http://www.w3.org/2000/svg" width="23.714" height="26.092" viewBox="0 0 23.714 26.092">
  <g id="Grupo_822" data-name="Grupo 822">
    <g id="Grupo_821" data-name="Grupo 821">
      <path id="Caminho_760" data-name="Caminho 760" d="M21.913,8.832a7.964,7.964,0,0,0,.112-1.322c0-4.119-3.042-7.453-6.784-7.448A6.844,6.844,0,0,0,8.879,4.978a3.294,3.294,0,0,0-4.4,2.085,4,4,0,0,0-.147.509A5.539,5.539,0,0,0,.057,13.93,5.262,5.262,0,0,0,5.085,18.7H9.32a.936.936,0,0,0,0-1.864H5.085A3.571,3.571,0,0,1,1.7,13.1,3.571,3.571,0,0,1,5.085,9.374a.893.893,0,0,0,.847-.932,1.785,1.785,0,0,1,1.7-1.861,1.618,1.618,0,0,1,1.183.533.793.793,0,0,0,1.2-.01.969.969,0,0,0,.233-.5A5.153,5.153,0,0,1,16.083,2a5.553,5.553,0,0,1,4.176,6.428q-.041.272-.107.539A.98.98,0,0,0,20.5,10a3.964,3.964,0,0,1,.95,5.168,3.319,3.319,0,0,1-2.815,1.667H16.1a.936.936,0,0,0,0,1.864h2.541a5.357,5.357,0,0,0,5.077-5.6A5.837,5.837,0,0,0,21.913,8.832Z" transform="translate(-0.001 -0.062)"/>
    </g>
  </g>
  <g id="Grupo_824" data-name="Grupo 824" transform="translate(7.635 8.381)">
    <g id="Grupo_823" data-name="Grupo 823">
      <path id="Caminho_761" data-name="Caminho 761" d="M163.739,158.435l-4.235-4.661a.836.836,0,0,0-.276-.2.776.776,0,0,0-.647,0,.838.838,0,0,0-.276.2l-4.235,4.661a1,1,0,0,0,.021,1.318.792.792,0,0,0,1.177,0l2.791-3.07v13.6a.851.851,0,1,0,1.694,0v-13.6l2.789,3.07a.793.793,0,0,0,1.2-.023A1,1,0,0,0,163.739,158.435Z" transform="translate(-153.832 -153.502)"/>
    </g>
  </g>
</svg>
