<?xml version="1.0" standalone="no"?>
<!DOCTYPE svg PUBLIC "-//W3C//DTD SVG 20010904//EN"
 "http://www.w3.org/TR/2001/REC-SVG-20010904/DTD/svg10.dtd">
<svg version="1.0" xmlns="http://www.w3.org/2000/svg"
 width="1079.000000pt" height="1092.000000pt" viewBox="0 0 1079.000000 1092.000000"
 preserveAspectRatio="xMidYMid meet">

<g transform="translate(0.000000,1092.000000) scale(0.100000,-0.100000)"
fill="#000000" stroke="none">
<path d="M4500 10620 c-384 -31 -652 -141 -691 -282 -6 -24 -13 -48 -14 -54
-2 -7 -52 -13 -132 -17 -165 -8 -328 -38 -474 -87 -288 -96 -467 -234 -564
-434 -43 -88 -53 -101 -133 -168 -282 -237 -542 -493 -630 -621 -53 -77 -112
-193 -112 -221 0 -8 -21 -34 -46 -58 -25 -24 -57 -64 -70 -90 -13 -26 -34 -52
-46 -59 -13 -6 -57 -37 -98 -67 -248 -185 -409 -459 -410 -698 0 -58 4 -77 23
-105 48 -72 167 -105 278 -79 186 45 430 232 563 433 l58 87 104 0 c219 0 391
59 749 260 168 94 611 263 1190 455 639 212 877 263 1183 252 206 -6 308 -32
487 -122 150 -75 243 -140 509 -354 348 -279 498 -368 706 -416 95 -22 357
-22 581 0 309 31 323 31 424 -5 154 -54 249 -111 650 -387 131 -90 271 -161
404 -204 l98 -32 -29 -42 c-20 -28 -34 -67 -44 -116 -19 -101 -17 -133 11
-214 14 -38 32 -95 41 -125 42 -152 174 -277 363 -344 79 -28 96 -30 211 -30
103 1 136 4 184 22 130 48 234 143 293 268 32 67 37 87 41 174 4 81 1 108 -17
161 -27 82 -80 152 -161 212 l-65 49 36 38 c77 81 110 200 91 325 -40 259
-216 478 -567 708 -55 36 -233 138 -395 228 -434 238 -524 297 -880 574 -451
350 -701 489 -1036 575 -351 91 -699 112 -1492 91 -244 -7 -509 -9 -588 -5
l-145 7 68 62 c80 73 130 152 139 217 13 92 -61 183 -181 224 -59 20 -299 27
-465 14z"/>
<path d="M5110 7694 c-349 -32 -558 -75 -772 -159 -188 -75 -334 -172 -474
-317 -296 -306 -444 -751 -485 -1452 -6 -105 -14 -194 -18 -197 -3 -3 -224
-30 -491 -59 -267 -29 -488 -56 -493 -60 -4 -3 1 -75 10 -159 l17 -153 35 5
c119 18 882 99 887 94 3 -3 -174 -230 -394 -505 -220 -275 -406 -509 -413
-520 -10 -16 -10 -42 -1 -122 6 -56 13 -104 15 -106 4 -4 952 99 1024 111 32
6 33 4 69 -67 190 -382 522 -624 999 -728 215 -47 372 -61 726 -67 600 -10
1185 40 1610 138 l89 21 0 869 c0 478 2 869 5 869 3 0 28 -11 55 -25 148 -75
352 -72 504 7 78 41 238 200 324 323 79 111 169 292 182 364 33 179 -23 358
-155 500 -179 192 -520 417 -683 450 -171 35 -337 -3 -470 -108 -29 -23 -52
-36 -52 -29 0 7 32 226 71 486 39 261 69 476 66 479 -9 9 -238 52 -361 68
-277 35 -473 46 -926 49 -250 2 -475 2 -500 0z m690 -1004 c226 -13 525 -42
759 -75 97 -14 180 -25 184 -25 4 0 -24 -36 -63 -81 -119 -134 -232 -319 -276
-449 -37 -112 -16 -317 42 -407 8 -12 14 -25 14 -28 0 -3 -110 -5 -245 -5
l-245 0 0 -185 0 -184 -27 4 c-64 12 -528 73 -531 71 -1 -2 -38 -258 -81 -570
-44 -312 -81 -570 -84 -573 -10 -9 -156 27 -228 57 -88 36 -189 109 -240 173
-122 154 -175 355 -186 702 l-6 191 529 213 c291 118 530 214 530 215 2 1 -43
117 -87 223 l-30 71 -467 -188 -467 -189 -3 118 c-1 65 2 129 7 142 7 20 55
43 292 137 156 63 288 117 292 122 9 8 -100 290 -112 290 -4 0 -96 -36 -204
-79 -108 -44 -197 -77 -197 -74 0 3 17 37 37 75 91 174 267 277 524 307 106
12 355 13 569 1z m1451 -265 c102 -36 295 -167 427 -290 132 -123 154 -211 86
-346 -58 -116 -131 -217 -223 -310 -140 -140 -207 -144 -411 -24 l-80 47 0 59
0 59 -79 0 -78 0 -79 83 c-84 87 -104 127 -104 205 0 120 271 489 383 521 49
14 110 13 158 -4z m-1381 -1478 l95 -13 3 -296 2 -297 -32 5 c-18 3 -93 13
-166 24 -74 10 -136 21 -139 24 -5 5 63 536 73 564 2 9 14 11 36 7 18 -3 76
-11 128 -18z m-2419 -391 c16 -82 28 -150 27 -151 -2 -1 -101 -13 -220 -27
-137 -15 -214 -20 -210 -14 3 6 85 110 181 231 l175 220 9 -55 c5 -30 22 -122
38 -204z"/>
<path d="M2194 7570 c-61 -12 -179 -75 -231 -123 -84 -77 -115 -190 -74 -267
23 -45 106 -88 181 -96 30 -3 77 -13 104 -21 101 -32 225 4 300 87 46 51 56
77 56 142 0 40 -8 66 -36 117 -20 36 -50 81 -67 98 -46 49 -154 78 -233 63z"/>
<path d="M890 7155 c-81 -18 -219 -84 -287 -137 -72 -55 -239 -242 -268 -297
-64 -127 -86 -287 -64 -462 7 -57 11 -120 9 -139 -2 -19 -4 -72 -4 -117 0 -74
4 -88 39 -160 48 -98 185 -241 286 -296 238 -132 423 -100 617 108 113 121
163 243 177 430 7 94 11 107 92 297 51 120 91 230 101 278 16 75 16 84 -1 147
-40 152 -160 266 -354 334 -77 28 -252 35 -343 14z"/>
<path d="M9763 6505 c-87 -19 -157 -59 -229 -130 -132 -130 -173 -313 -123
-545 67 -315 69 -323 69 -456 0 -281 -74 -501 -209 -626 -60 -55 -99 -77 -266
-147 -305 -129 -674 -462 -810 -731 -62 -123 -80 -200 -80 -345 0 -112 3 -140
25 -200 22 -64 25 -68 30 -40 l5 30 14 -41 c13 -41 13 -41 -39 -125 -92 -147
-191 -270 -320 -400 -365 -367 -844 -646 -1784 -1039 -429 -178 -596 -224
-831 -224 -180 -1 -244 13 -390 85 -120 58 -203 120 -405 299 -198 176 -285
241 -395 296 -148 73 -214 86 -476 91 l-226 5 -34 52 c-58 89 -134 244 -229
466 -50 118 -112 253 -136 300 -155 293 -341 475 -594 579 -241 100 -290 135
-391 284 -106 156 -219 250 -344 287 -35 10 -45 20 -75 77 -44 82 -121 168
-197 219 -32 21 -86 63 -120 91 -117 98 -238 143 -388 143 -186 0 -328 -75
-387 -205 -31 -69 -38 -257 -13 -377 22 -109 80 -280 162 -476 36 -86 85 -215
110 -287 25 -71 55 -146 67 -165 32 -49 68 -120 60 -120 -3 0 21 -51 54 -114
261 -496 699 -976 1235 -1353 231 -162 555 -341 1007 -556 142 -67 147 -71
230 -160 347 -371 748 -571 1260 -628 132 -15 687 -14 816 1 52 6 120 20 150
30 200 69 266 263 122 358 l-42 27 140 12 c76 6 153 12 169 12 l31 1 -4 -64
c-6 -92 17 -153 85 -226 100 -108 260 -164 403 -141 249 40 398 304 274 486
-14 20 -24 38 -22 39 2 1 73 19 158 40 276 67 537 175 775 321 61 37 159 94
218 127 221 120 369 226 739 530 128 104 349 277 491 384 322 244 403 312 547
461 180 185 292 368 345 563 17 65 35 104 77 165 208 303 300 559 412 1150
147 774 151 1140 16 1423 -108 225 -294 410 -477 471 -83 28 -183 34 -260 16z"/>
<path d="M1247 5319 c-221 -52 -300 -287 -147 -439 53 -54 118 -80 196 -80
102 0 214 62 254 140 25 50 30 207 8 260 -41 97 -179 150 -311 119z"/>
</g>
</svg>
